<svg width="46" height="47" viewBox="0 0 46 47" fill="none" xmlns="http://www.w3.org/2000/svg">
<path fill-rule="evenodd" clip-rule="evenodd" d="M22.7414 0.250225C14.7733 0.250225 8.28128 6.74298 8.28128 14.7158C8.28128 18.6158 10.8838 23.7836 13.7882 29.0032C16.6927 34.2229 20.0008 39.348 21.596 42.173C21.7107 42.3757 21.8771 42.5444 22.0783 42.6618C22.2795 42.7792 22.5083 42.841 22.7412 42.841C22.9741 42.841 23.2029 42.7792 23.4041 42.6618C23.6053 42.5444 23.7717 42.3757 23.8864 42.173C25.4846 39.3472 28.794 34.2222 31.6991 29.0026C34.6043 23.7828 37.2067 18.615 37.2067 14.7149C37.2067 6.74211 30.7142 0.24939 22.7414 0.24939V0.250225ZM22.7414 2.88112C29.292 2.88112 34.576 8.16515 34.576 14.7158C34.576 17.2776 32.2479 22.6075 29.4002 27.7239C27.1039 31.8498 24.5369 35.9304 22.742 38.9238C20.9488 35.9301 18.3829 31.8499 16.0871 27.7241C13.2401 22.6076 10.912 17.2775 10.912 14.7157C10.912 8.16513 16.1965 2.88112 22.7414 2.88112V2.88112Z" fill="#AD26B4"/>
<path fill-rule="evenodd" clip-rule="evenodd" d="M22.8624 8.50647C19.4573 8.50647 16.6743 11.2896 16.6743 14.6947C16.6743 18.0998 19.4573 20.8828 22.8624 20.8828C26.2675 20.8828 29.0505 18.0998 29.0505 14.6947C29.0505 11.2896 26.2675 8.50647 22.8624 8.50647ZM22.8624 10.6111C25.1299 10.6111 26.946 12.4272 26.946 14.6947C26.946 16.9622 25.1299 18.7781 22.8624 18.7781C20.5949 18.7781 18.7788 16.9622 18.7788 14.6947C18.7788 12.4272 20.5949 10.6111 22.8624 10.6111Z" fill="#AD26B4"/>
<path fill-rule="evenodd" clip-rule="evenodd" d="M10.3649 37.585C10.1442 37.585 9.92408 37.6566 9.74562 37.7865L0.673759 44.3904C0.495711 44.5201 0.360127 44.7072 0.292236 44.9167C0.224344 45.1262 0.224491 45.3572 0.292657 45.5667C0.360817 45.7762 0.496647 45.9631 0.674864 46.0925C0.853076 46.222 1.07277 46.2934 1.29305 46.2934C15.5919 46.2934 29.8908 46.2934 44.1897 46.2934C44.41 46.2934 44.6297 46.222 44.8079 46.0926C44.9861 45.9631 45.1219 45.7763 45.1901 45.5669C45.2583 45.3574 45.2585 45.1265 45.1907 44.9169C45.1229 44.7073 44.9873 44.5203 44.8093 44.3905L35.7427 37.7866C35.5642 37.6567 35.344 37.585 35.1231 37.585H29.3138C27.8535 37.585 27.8933 39.6895 29.3138 39.6895H34.7803L40.9577 44.189C28.814 44.189 16.6703 44.189 4.52663 44.189L10.7075 39.6895H16.169C17.559 39.6895 17.4776 37.585 16.169 37.585H10.3649Z" fill="#AD26B4"/>
</svg>
