<svg xmlns="http://www.w3.org/2000/svg" width="198.023" height="44" viewBox="0 0 198.023 44">
  <g id="fcn-logo" transform="translate(-373.977 -15)">
    <g id="Group_27" data-name="Group 27" transform="translate(373.977 19.174)">
      <path id="Path_29" data-name="Path 29" d="M3732.535,163.545a3.9,3.9,0,0,0-3.9,3.9v11.483a3.9,3.9,0,0,1,3.9-3.9h19.48a11.483,11.483,0,0,0,11.484-11.483h-30.964Z" transform="translate(-3728.639 -163.545)" fill="#fff"/>
      <path id="Path_30" data-name="Path 30" d="M3728.639,219.828v3.9h9.637a7.792,7.792,0,0,0,7.792-7.792h-13.534A3.9,3.9,0,0,0,3728.639,219.828Z" transform="translate(-3728.639 -189.069)" fill="#fff"/>
      <path id="Path_31" data-name="Path 31" d="M3732.668,193.537a4.03,4.03,0,0,0-4.029,4.03v7.454a3.9,3.9,0,0,1,3.9-3.9h24.607l-7.317-7.588Z" transform="translate(-3728.639 -178.158)" fill="#fff"/>
    </g>
    <text id="FRONTENDERS_COMMUNITY_NEPAL" data-name="FRONTENDERS
COMMUNITY NEPAL" transform="translate(421 32)" fill="#fff" font-size="16" font-family="OpenSans, Open Sans"><tspan x="0" y="0">FRONTENDERS</tspan><tspan x="0" y="22">COMMUNITY NEPAL</tspan></text>
  </g>
</svg>
